<mxfile host="app.diagrams.net" agent="Mozilla/5.0 (Windows NT 10.0; Win64; x64) AppleWebKit/537.36 (KHTML, like Gecko) Chrome/129.0.0.0 Safari/537.36" version="24.7.16">
  <diagram name="Page-1" id="eMkxu9mb34cqOc0nAik_">
    <mxGraphModel>
      <root>
        <mxCell id="0" />
        <mxCell id="1" parent="0" />
        <mxCell id="2" value="Start" style="ellipse;aspect=fixed;strokeWidth=2;whiteSpace=wrap;" vertex="1" parent="1">
          <mxGeometry x="8" y="94" width="50" height="50" as="geometry" />
        </mxCell>
        <mxCell id="3" value="Input nilai mata kuliah 1" style="whiteSpace=wrap;strokeWidth=2;" vertex="1" parent="1">
          <mxGeometry x="108" y="95" width="236" height="49" as="geometry" />
        </mxCell>
        <mxCell id="4" value="Input nilai mata kuliah 2" style="whiteSpace=wrap;strokeWidth=2;" vertex="1" parent="1">
          <mxGeometry x="394" y="95" width="236" height="49" as="geometry" />
        </mxCell>
        <mxCell id="5" value="Input nilai mata kuliah 3" style="whiteSpace=wrap;strokeWidth=2;" vertex="1" parent="1">
          <mxGeometry x="679" y="95" width="236" height="49" as="geometry" />
        </mxCell>
        <mxCell id="6" value="Input total pendapatan orang" style="whiteSpace=wrap;strokeWidth=2;" vertex="1" parent="1">
          <mxGeometry x="965" y="86" width="226" height="66" as="geometry" />
        </mxCell>
        <mxCell id="7" value="Nilai mata kuliah valid?" style="rhombus;strokeWidth=2;whiteSpace=wrap;" vertex="1" parent="1">
          <mxGeometry x="1241" y="12" width="215" height="215" as="geometry" />
        </mxCell>
        <mxCell id="8" value="Total pendapatan valid?" style="rhombus;strokeWidth=2;whiteSpace=wrap;" vertex="1" parent="1">
          <mxGeometry x="1527" y="88" width="219" height="219" as="geometry" />
        </mxCell>
        <mxCell id="9" value="Error! Stop" style="ellipse;aspect=fixed;strokeWidth=2;whiteSpace=wrap;" vertex="1" parent="1">
          <mxGeometry x="1921" y="8" width="93" height="93" as="geometry" />
        </mxCell>
        <mxCell id="10" value="Hitung rata-rata nilai mata kuliah" style="whiteSpace=wrap;strokeWidth=2;" vertex="1" parent="1">
          <mxGeometry x="1840" y="185" width="253" height="66" as="geometry" />
        </mxCell>
        <mxCell id="11" value="Hitung total pendapatan per bulan" style="whiteSpace=wrap;strokeWidth=2;" vertex="1" parent="1">
          <mxGeometry x="2144" y="185" width="235" height="66" as="geometry" />
        </mxCell>
        <mxCell id="12" value="Hitung besaran beasiswa" style="whiteSpace=wrap;strokeWidth=2;" vertex="1" parent="1">
          <mxGeometry x="2429" y="194" width="236" height="49" as="geometry" />
        </mxCell>
        <mxCell id="13" value="Besaran beasiswa cukup?" style="rhombus;strokeWidth=2;whiteSpace=wrap;" vertex="1" parent="1">
          <mxGeometry x="2716" y="105" width="226" height="226" as="geometry" />
        </mxCell>
        <mxCell id="14" value="Success!" style="ellipse;aspect=fixed;strokeWidth=2;whiteSpace=wrap;" vertex="1" parent="1">
          <mxGeometry x="3090" y="92" width="75" height="75" as="geometry" />
        </mxCell>
        <mxCell id="15" value="Ganti besaran beasiswa" style="ellipse;aspect=fixed;strokeWidth=2;whiteSpace=wrap;" vertex="1" parent="1">
          <mxGeometry x="3036" y="216" width="183" height="183" as="geometry" />
        </mxCell>
        <mxCell id="16" value="" style="curved=1;startArrow=none;endArrow=block;exitX=1.01;exitY=0.51;entryX=0;entryY=0.5;" edge="1" parent="1" source="2" target="3">
          <mxGeometry relative="1" as="geometry">
            <Array as="points" />
          </mxGeometry>
        </mxCell>
        <mxCell id="17" value="" style="curved=1;startArrow=none;endArrow=block;exitX=1;exitY=0.5;entryX=0;entryY=0.5;" edge="1" parent="1" source="3" target="4">
          <mxGeometry relative="1" as="geometry">
            <Array as="points" />
          </mxGeometry>
        </mxCell>
        <mxCell id="18" value="" style="curved=1;startArrow=none;endArrow=block;exitX=1;exitY=0.5;entryX=0;entryY=0.5;" edge="1" parent="1" source="4" target="5">
          <mxGeometry relative="1" as="geometry">
            <Array as="points" />
          </mxGeometry>
        </mxCell>
        <mxCell id="19" value="" style="curved=1;startArrow=none;endArrow=block;exitX=1;exitY=0.5;entryX=0;entryY=0.5;" edge="1" parent="1" source="5" target="6">
          <mxGeometry relative="1" as="geometry">
            <Array as="points" />
          </mxGeometry>
        </mxCell>
        <mxCell id="20" value="" style="curved=1;startArrow=none;endArrow=block;exitX=1;exitY=0.5;entryX=0;entryY=0.5;" edge="1" parent="1" source="6" target="7">
          <mxGeometry relative="1" as="geometry">
            <Array as="points" />
          </mxGeometry>
        </mxCell>
        <mxCell id="21" value="Ya" style="curved=1;startArrow=none;endArrow=block;exitX=1;exitY=0.77;entryX=0;entryY=0.5;" edge="1" parent="1" source="7" target="8">
          <mxGeometry relative="1" as="geometry">
            <Array as="points">
              <mxPoint x="1492" y="197" />
            </Array>
          </mxGeometry>
        </mxCell>
        <mxCell id="22" value="Tidak" style="curved=1;startArrow=none;endArrow=block;exitX=1;exitY=0.22;entryX=0;entryY=0.46;" edge="1" parent="1" source="7" target="9">
          <mxGeometry relative="1" as="geometry">
            <Array as="points">
              <mxPoint x="1492" y="39" />
              <mxPoint x="1793" y="39" />
            </Array>
          </mxGeometry>
        </mxCell>
        <mxCell id="23" value="Ya" style="curved=1;startArrow=none;endArrow=block;exitX=1;exitY=0.57;entryX=0;entryY=0.51;" edge="1" parent="1" source="8" target="10">
          <mxGeometry relative="1" as="geometry">
            <Array as="points">
              <mxPoint x="1793" y="218" />
            </Array>
          </mxGeometry>
        </mxCell>
        <mxCell id="24" value="Tidak" style="curved=1;startArrow=none;endArrow=block;exitX=1;exitY=0.29;entryX=0;entryY=0.72;" edge="1" parent="1" source="8" target="9">
          <mxGeometry relative="1" as="geometry">
            <Array as="points">
              <mxPoint x="1793" y="132" />
            </Array>
          </mxGeometry>
        </mxCell>
        <mxCell id="25" value="" style="curved=1;startArrow=none;endArrow=block;exitX=1;exitY=0.51;entryX=0;entryY=0.51;" edge="1" parent="1" source="10" target="11">
          <mxGeometry relative="1" as="geometry">
            <Array as="points" />
          </mxGeometry>
        </mxCell>
        <mxCell id="26" value="" style="curved=1;startArrow=none;endArrow=block;exitX=1;exitY=0.51;entryX=0;entryY=0.5;" edge="1" parent="1" source="11" target="12">
          <mxGeometry relative="1" as="geometry">
            <Array as="points" />
          </mxGeometry>
        </mxCell>
        <mxCell id="27" value="" style="curved=1;startArrow=none;endArrow=block;exitX=1;exitY=0.5;entryX=0;entryY=0.5;" edge="1" parent="1" source="12" target="13">
          <mxGeometry relative="1" as="geometry">
            <Array as="points" />
          </mxGeometry>
        </mxCell>
        <mxCell id="28" value="Ya" style="curved=1;startArrow=none;endArrow=block;exitX=1;exitY=0.22;entryX=0;entryY=0.49;" edge="1" parent="1" source="13" target="14">
          <mxGeometry relative="1" as="geometry">
            <Array as="points">
              <mxPoint x="2989" y="129" />
            </Array>
          </mxGeometry>
        </mxCell>
        <mxCell id="29" value="Tidak" style="curved=1;startArrow=none;endArrow=block;exitX=1;exitY=0.78;entryX=0;entryY=0.5;" edge="1" parent="1" source="13" target="15">
          <mxGeometry relative="1" as="geometry">
            <Array as="points">
              <mxPoint x="2989" y="308" />
            </Array>
          </mxGeometry>
        </mxCell>
      </root>
    </mxGraphModel>
  </diagram>
</mxfile>
